<?xml version="1.0" encoding="UTF-8" standalone="no"?><!DOCTYPE svg PUBLIC "-//W3C//DTD SVG 1.1//EN" "http://www.w3.org/Graphics/SVG/1.1/DTD/svg11.dtd"><svg width="100%" height="100%" viewBox="0 0 361 604" version="1.1" xmlns="http://www.w3.org/2000/svg" xmlns:xlink="http://www.w3.org/1999/xlink" xml:space="preserve" xmlns:serif="http://www.serif.com/" style="fill-rule:evenodd;clip-rule:evenodd;stroke-linecap:round;stroke-linejoin:round;stroke-miterlimit:60;"><g><path d="M180.419,59.136c0,0 -121.283,254.695 -121.283,363.849c0,66.938 54.345,121.283 121.283,121.283c66.938,0 121.283,-54.345 121.283,-121.283c0,-109.154 -121.283,-363.849 -121.283,-363.849Z" style="fill:none;stroke:#685d4e;stroke-width:29.17px;"/><path d="M43.005,301.702l274.829,0" style="fill:none;stroke:#685d4e;stroke-width:29.17px;"/><path d="M14.583,180.419c0,-91.527 74.309,-165.836 165.836,-165.836c91.528,0 165.836,74.309 165.836,165.836" style="fill:none;stroke:#685d4e;stroke-width:29.17px;"/><path d="M346.255,422.985c0,91.528 -74.308,165.836 -165.836,165.836c-91.527,0 -165.836,-74.308 -165.836,-165.836" style="fill:none;stroke:#685d4e;stroke-width:29.17px;"/></g></svg>